<svg xmlns="http://www.w3.org/2000/svg" xmlns:xlink="http://www.w3.org/1999/xlink" width="500" zoomAndPan="magnify" viewBox="0 0 375 374.999991" height="500" preserveAspectRatio="xMidYMid meet" version="1.0"><defs><clipPath id="261922f034"><path d="M 20.453125 0 L 337.65625 0 L 337.65625 375 L 20.453125 375 Z M 20.453125 0 " clip-rule="nonzero"/></clipPath></defs><path fill="#60637a" d="M 178.589844 28.746094 C 167.199219 56.339844 181.441406 67.945312 189.855469 64 C 189.855469 44.671875 205.703125 28.871094 225.066406 28.871094 C 244.453125 28.871094 260.300781 44.671875 260.300781 64 L 260.300781 101.371094 L 282.433594 101.371094 L 282.433594 62.671875 C 282.433594 31.214844 256.613281 5.492188 225.066406 5.492188 C 208.472656 5.492188 192.855469 12.675781 181.984375 25.03125 C 181.378906 25.734375 179.921875 27.292969 178.589844 28.746094 Z M 178.589844 28.746094 " fill-opacity="1" fill-rule="evenodd"/><path fill="#ffdbac" d="M 44.949219 101.371094 L 26.144531 369.507812 L 207.472656 369.507812 L 226.296875 101.371094 C 161.472656 101.371094 105.167969 101.371094 44.949219 101.371094 Z M 44.949219 101.371094 " fill-opacity="1" fill-rule="evenodd"/><path fill="#f0bf7f" d="M 331.847656 369.507812 L 313.023438 101.371094 L 226.296875 101.371094 L 207.472656 369.507812 Z M 331.847656 369.507812 " fill-opacity="1" fill-rule="evenodd"/><path fill="#6e728a" d="M 97.277344 127.011719 L 97.277344 64 C 97.277344 44.671875 113.121094 28.871094 132.488281 28.871094 C 151.875 28.871094 167.71875 44.671875 167.71875 64 L 167.71875 126.867188 C 167.71875 133.074219 172.699219 138.035156 178.777344 138.035156 C 184.878906 138.035156 189.855469 133.074219 189.855469 126.867188 L 189.855469 62.671875 C 189.855469 31.214844 164.035156 5.492188 132.488281 5.492188 C 100.941406 5.492188 75.140625 31.214844 75.140625 62.671875 L 75.140625 127.011719 C 75.140625 133.074219 80.117188 138.035156 86.199219 138.035156 C 92.300781 138.035156 97.277344 133.074219 97.277344 127.011719 Z M 97.277344 127.011719 " fill-opacity="1" fill-rule="evenodd"/><path fill="#f26498" d="M 133.820312 215.414062 C 99.648438 179 62.5 230.363281 101.460938 268.710938 L 133.820312 300.578125 L 166.199219 268.710938 C 205.160156 230.363281 168.011719 179 133.820312 215.414062 Z M 133.820312 215.414062 " fill-opacity="1" fill-rule="evenodd"/><path fill="#ffcd8c" d="M 166.199219 268.710938 L 133.820312 300.578125 L 124.324219 291.234375 C 103.105469 326.445312 76.472656 354.207031 48.757812 369.507812 L 207.472656 369.507812 L 226.296875 101.371094 L 189.855469 101.371094 L 189.855469 126.867188 C 189.855469 133.074219 184.878906 138.035156 178.777344 138.035156 C 175.09375 138.035156 171.800781 136.207031 169.78125 133.363281 C 169.804688 153.398438 167.324219 175.054688 162.078125 197.664062 C 161.660156 199.511719 161.203125 201.335938 160.746094 203.164062 C 182.566406 205.945312 194.5625 240.785156 166.199219 268.710938 Z M 166.199219 268.710938 " fill-opacity="1" fill-rule="evenodd"/><path fill="#db467d" d="M 133.820312 300.578125 L 166.199219 268.710938 C 194.5625 240.785156 182.566406 205.945312 160.746094 203.164062 C 152.707031 235.242188 139.984375 265.261719 124.324219 291.234375 Z M 133.820312 300.578125 " fill-opacity="1" fill-rule="evenodd"/><path fill="#000000" d="M 164.5625 198.285156 C 158.460938 196.769531 146.816406 196.234375 133.820312 207.75 C 120.835938 196.234375 109.195312 196.769531 103.097656 198.28125 C 92.433594 200.925781 84.09375 209.703125 80.792969 221.757812 C 76.15625 238.683594 82.441406 257.699219 97.605469 272.621094 L 129.964844 304.492188 C 131.035156 305.546875 132.425781 306.070312 133.820312 306.070312 C 135.214844 306.070312 136.605469 305.542969 137.675781 304.492188 L 170.054688 272.625 C 185.21875 257.699219 191.503906 238.6875 186.871094 221.765625 C 183.570312 209.707031 175.230469 200.929688 164.5625 198.285156 Z M 162.34375 264.792969 L 133.820312 292.867188 L 105.316406 264.796875 C 93.027344 252.699219 87.820312 237.695312 91.390625 224.660156 C 93.628906 216.492188 98.996094 210.617188 105.742188 208.945312 C 107.046875 208.621094 108.378906 208.460938 109.730469 208.460938 C 116.238281 208.460938 123.230469 212.160156 129.8125 219.171875 C 130.851562 220.28125 132.300781 220.90625 133.820312 220.90625 C 135.339844 220.90625 136.789062 220.28125 137.828125 219.171875 C 145.785156 210.699219 154.339844 207.070312 161.917969 208.945312 C 168.667969 210.621094 174.03125 216.496094 176.269531 224.667969 C 179.839844 237.699219 174.632812 252.699219 162.34375 264.792969 Z M 162.34375 264.792969 " fill-opacity="1" fill-rule="nonzero"/><g clip-path="url(#261922f034)"><path fill="#000000" d="M 336.328125 372.679688 C 337.054688 371.65625 337.417969 370.378906 337.328125 369.121094 L 318.503906 100.984375 C 318.304688 98.109375 315.910156 95.878906 313.023438 95.878906 L 287.929688 95.878906 L 287.929688 62.671875 C 287.929688 28.113281 259.730469 0 225.066406 0 C 207.503906 0 190.726562 7.402344 178.808594 20.351562 C 167.308594 7.851562 150.800781 0 132.488281 0 C 97.835938 0 69.644531 28.113281 69.644531 62.671875 L 69.644531 95.878906 L 44.949219 95.878906 C 42.0625 95.878906 39.667969 98.109375 39.464844 100.984375 L 20.664062 369.121094 C 20.554688 370.644531 21.085938 372.136719 22.125 373.253906 C 23.164062 374.367188 24.621094 375 26.144531 375 L 331.847656 375 C 333.613281 375 335.308594 374.117188 336.328125 372.679688 Z M 307.902344 106.863281 L 325.371094 355.695312 L 275.164062 307.617188 L 275.164062 106.863281 Z M 186.132812 28.632812 C 196.015625 17.417969 210.203125 10.984375 225.066406 10.984375 C 253.671875 10.984375 276.941406 34.171875 276.941406 62.671875 L 276.941406 95.878906 L 265.796875 95.878906 L 265.796875 64 C 265.796875 41.601562 247.523438 23.378906 225.066406 23.378906 C 211.144531 23.378906 198.839844 30.390625 191.496094 41.058594 C 189.953125 36.886719 187.964844 32.929688 185.609375 29.222656 C 185.808594 29.003906 185.988281 28.800781 186.132812 28.632812 Z M 254.804688 64 L 254.804688 95.878906 L 195.351562 95.878906 L 195.351562 64 C 195.351562 47.660156 208.679688 34.363281 225.066406 34.363281 C 241.464844 34.363281 254.804688 47.65625 254.804688 64 Z M 80.636719 62.671875 C 80.636719 34.171875 103.898438 10.984375 132.488281 10.984375 C 161.089844 10.984375 184.359375 34.171875 184.359375 62.671875 L 184.359375 126.867188 C 184.359375 129.996094 181.855469 132.542969 178.777344 132.542969 C 175.710938 132.542969 173.214844 129.996094 173.214844 126.867188 L 173.214844 64 C 173.214844 41.601562 154.945312 23.378906 132.488281 23.378906 C 110.042969 23.378906 91.78125 41.601562 91.78125 64 L 91.78125 127.011719 C 91.78125 130.0625 89.277344 132.542969 86.199219 132.542969 C 83.132812 132.542969 80.636719 130.0625 80.636719 127.011719 Z M 162.226562 64 L 162.226562 95.878906 L 102.769531 95.878906 L 102.769531 64 C 102.769531 47.660156 116.101562 34.363281 132.488281 34.363281 C 148.886719 34.363281 162.226562 47.65625 162.226562 64 Z M 202.347656 364.011719 L 32.039062 364.011719 L 50.070312 106.863281 L 69.644531 106.863281 L 69.644531 127.011719 C 69.644531 136.117188 77.070312 143.527344 86.199219 143.527344 C 95.335938 143.527344 102.769531 136.117188 102.769531 127.011719 L 102.769531 106.863281 L 162.226562 106.863281 L 162.226562 126.867188 C 162.226562 136.054688 169.652344 143.527344 178.777344 143.527344 C 187.914062 143.527344 195.351562 136.054688 195.351562 126.867188 L 195.351562 106.863281 L 220.402344 106.863281 Z M 231.417969 106.863281 L 264.175781 106.863281 L 264.175781 307.617188 L 213.949219 355.699219 Z M 269.667969 317.570312 L 318.167969 364.011719 L 221.15625 364.011719 Z M 269.667969 317.570312 " fill-opacity="1" fill-rule="nonzero"/></g></svg>